<svg width="512" height="512" viewBox="0 0 512 512" fill="none" xmlns="http://www.w3.org/2000/svg">
<path d="M375.2 161.8C375.6 161.9 369.8 157.9 366.7 156C364.7 154.8 359.1 154.2 355.4 155.9C351.1 157.5 331.3 166.1 311.7 165.8C292.2 165.6 273.6 157.2 270.7 156C267.8 154.9 147.6 88.3 147.6 88.3L136.8 88V89.1L144.3 91.2L228.5 176.3C228.5 176.3 268.3 207.5 235.9 256.7L188.3 338L203.5 330.5L375.2 161.8Z" fill="#FFA300"/>
<path d="M62.8 388.1V403.4H84.5C89.5 403.4 93.1 401.5 93.1 395.7C93.1 389.9 89.4 388 84.5 388H62.8V388.1ZM56 423.1V380.8H84.1C92.7 380.8 100.3 384.5 100.3 395.7C100.3 406.9 92.8 410.7 84.1 410.7H62.8V423H56V423.1Z" fill="#1F3876"/>
<path d="M113 405L111.9 406.8H131.3L130.3 405L121.6 387.6L113 405ZM147.9 423.1H139.9L135.1 414H108.3L103.5 423.1H95.5L117.7 380.8H125.6L147.9 423.1Z" fill="#1F3876"/>
<path d="M153.6 423.1V380.8H160.5V415.8H190.8V423.1H153.6Z" fill="#1F3876"/>
<path d="M228.4 399.4C229.5 392.3 225.5 385.6 217.1 385.1C213.3 384.9 209.6 385.3 206 386.5C205.2 386.7 204.4 387 203.4 387.3C203 386.2 202.7 385.3 202.3 384C204.6 383.4 206.6 382.7 208.7 382.3C213.1 381.4 217.5 381.1 221.8 382.5C227.9 384.4 231.8 389.2 232.3 395.5C232.4 396.5 232.4 397.4 232.4 398.4C232.4 405.8 232.4 413.1 232.4 420.5C232.4 421.2 232.4 422 232.4 422.9C231.2 422.9 230.3 422.9 229.1 422.9C229 421 228.8 419.2 228.7 417C228.1 417.4 227.7 417.6 227.5 417.9C224.1 422.1 219.4 423.6 214.2 423.9C211.3 424.1 208.5 423.9 205.8 422.8C201.2 421 198.7 417.3 198.5 412.2C198.4 407.3 200.8 403.3 205.2 401.4C208.1 400.1 211.2 399.7 214.4 399.7C218.5 399.7 222.7 399.7 226.8 399.7C227.4 399.5 227.9 399.4 228.4 399.4ZM228.5 403.1C228 403 227.7 402.9 227.3 402.9C222.8 402.9 218.3 402.8 213.8 402.9C211.7 403 209.6 403.3 207.7 404C204 405.3 202.3 408.2 202.6 412.3C202.8 416 204.9 418.7 208.5 419.6C210.4 420.1 212.5 420.2 214.5 420.1C222.8 419.6 229.3 414 228.5 403.1Z" fill="#1F3876"/>
<path d="M413.5 418.5C413.9 419.6 414.2 420.6 414.6 421.9C411.9 422.5 409.5 423.4 407 423.6C404 423.9 400.8 424.1 397.8 423.6C390.8 422.5 386.2 418.3 384.1 411.5C382 404.5 382.1 397.4 385.4 390.7C388.1 385.2 392.7 382.3 398.7 381.5C402.4 381 406 381.2 409.6 382.5C415.4 384.6 418.3 389.8 417.2 395.9C416.6 399.1 414.6 401.2 411.8 402.3C409.2 403.3 406.5 403.9 403.8 404.4C398.9 405.3 393.9 406 388.9 406.8C388.3 406.9 387.8 407.1 387.2 407.2C387.7 413.9 392.8 420.4 401.4 420.3C404.9 420.3 408.3 420.1 411.6 418.9C412.1 418.7 412.6 418.7 413.5 418.5ZM386.6 403.5C387.3 403.5 387.8 403.6 388.3 403.5C393.9 402.6 399.5 401.7 405.1 400.7C406.8 400.4 408.6 399.8 410.2 399C412.3 397.9 413.6 396.1 413.5 393.6C413.5 389.8 411.4 387.1 407.6 385.8C405.1 384.9 402.4 384.9 399.8 385.1C396 385.4 392.8 386.9 390.5 389.9C387.5 393.8 386.8 398.5 386.6 403.5Z" fill="#1F3876"/>
<path d="M373.9 423.6C372.6 423.6 371.6 423.6 370.3 423.6C370.3 422.7 370.3 421.9 370.3 421.1C370.3 413.6 370.4 406.1 370.3 398.6C370.3 396.5 370 394.4 369.4 392.4C367.9 387.2 363.3 384 357.8 384.3C350.1 384.8 344.9 389.1 343.4 396.7C342.9 399.3 342.6 402 342.6 404.7C342.5 410.1 342.6 415.5 342.6 420.9C342.6 421.7 342.5 422.5 342.5 423.5C341.3 423.5 340.3 423.5 339.3 423.5C338.8 422 338.6 384.9 339.1 381.6C340.1 381.6 341.2 381.6 342.4 381.6C342.4 384.1 342.4 386.4 342.4 389.3C343.2 388.5 343.6 388.2 343.9 387.7C348.3 381.3 356.2 379.4 363.1 381.1C369.1 382.6 372.2 386.8 373.5 392.6C373.9 394.2 374 395.9 374 397.5C374 405.3 374 413.1 374 420.9C373.9 421.9 373.9 422.7 373.9 423.6Z" fill="#1F3876"/>
<path d="M454.1 384C453.8 385 453.5 385.8 453.1 386.9C452.3 386.8 451.5 386.7 450.8 386.5C446.7 385.2 442.6 384.8 438.3 385.1C436.6 385.2 434.9 385.6 433.3 386.2C430.8 387.2 429 389.1 429 392C429 394.8 430.5 396.8 433.1 397.9C434.5 398.5 436.1 399 437.6 399.4C440.9 400.4 444.3 401.2 447.6 402.2C449 402.6 450.4 403.2 451.7 404C454.5 405.6 455.8 408.1 456.1 411.4C456.6 418.4 452.3 422 447.1 423.1C439.6 424.7 432.2 424.2 425.1 421.1C424.9 421 424.8 420.8 424.5 420.6C424.7 420.1 424.8 419.6 425 419.2C425.2 418.8 425.4 418.4 425.8 417.8C426.6 418.1 427.3 418.3 428.1 418.6C433.8 420.6 439.7 420.9 445.6 419.7C448.8 419.1 451.3 417.4 452.2 414C453 411 451.8 408.2 449.2 406.7C448.2 406.1 447 405.7 445.9 405.3C442.2 404.2 438.4 403.2 434.6 402.1C433.2 401.7 431.7 401.2 430.4 400.5C427.1 398.8 425.5 396.1 425.4 392.3C425.3 388.5 426.7 385.6 430 383.6C432.2 382.3 434.5 381.6 437 381.4C442.3 381 447.5 381.4 452.5 383.2C452.9 383.4 453.4 383.7 454.1 384Z" fill="#1F3876"/>
<path d="M270 423.6C268.8 423.6 267.8 423.6 266.4 423.6C266.1 419 266.3 414.4 266.3 409.8C266.3 405.1 266.3 400.5 266.3 395.8C266.3 391.2 266.3 386.5 266.3 381.7C267.5 381.7 268.5 381.7 269.7 381.7C269.8 384.5 269.8 387.3 269.9 390.1C270.1 390.2 270.3 390.2 270.5 390.3C271 389.6 271.5 388.9 271.9 388.2C275 383.5 279.5 381.1 285.1 380.7C285.3 380.7 285.5 380.7 285.8 380.8C285.9 380.8 286.1 380.9 286.3 381.1C286.3 382 286.3 382.9 286.3 384.1C285.8 384.2 285.3 384.5 284.8 384.5C279.5 385.1 275.8 388 273.3 392.6C271.3 396.2 270.4 400.2 270.3 404.3C270.1 409.9 270.2 415.6 270.2 421.2C270.1 421.9 270 422.7 270 423.6Z" fill="#1F3876"/>
<path d="M304.9 420.3C305.3 421.2 305.6 422 306 422.9C302.9 424.9 298.6 423.5 297.4 420.1C297.1 419.1 296.9 418 296.9 417C296.9 399.2 296.9 381.4 296.9 363.6C296.9 363 297 362.4 297 361.7C298.1 361.7 299.2 361.7 300.5 361.7C300.6 362.7 300.7 363.6 300.7 364.5C300.7 381.3 300.7 398.1 300.7 415C300.7 415.8 300.7 416.7 300.8 417.5C301.1 419.6 301.8 420.1 303.9 420.2C304.2 420.2 304.4 420.3 304.9 420.3Z" fill="#1F3876"/>
<path d="M324.7 423.6C323.7 423.6 322.6 423.6 321.2 423.6C321.2 410.8 321.2 398.1 321.2 385.2C319.6 385.1 318.3 385.1 316.7 385C316.7 383.9 316.7 382.9 316.7 381.7C319.4 381.7 322 381.7 324.6 381.7C325.2 383.4 325.3 421.2 324.7 423.6Z" fill="#1F3876"/>
<path d="M250.7 423.7C249.5 423.7 248.5 423.7 247.3 423.7C247.2 422.8 247.1 421.9 247.1 421.1C247.1 410.1 247.1 399.1 247.1 388C247.1 387.1 247.1 386.2 247.1 385.2C245.4 385.1 244.1 385 242.5 385C242.5 383.9 242.5 382.9 242.5 381.7C245.3 381.5 248 381.5 250.7 381.7C250.7 395.8 250.7 409.6 250.7 423.7Z" fill="#1F3876"/>
<path d="M248 371.7C246.2 371.7 245 370.5 245.1 368.7C245.1 367 246.2 366 248 366C249.9 366 250.8 366.9 250.8 368.7C250.9 370.6 249.9 371.7 248 371.7Z" fill="#1F3876"/>
<path d="M325.1 368.7C325.1 370.5 324.1 371.6 322.4 371.6C320.5 371.7 319.4 370.7 319.4 368.8C319.4 366.9 320.3 365.9 322.3 365.9C324 366 325.1 367 325.1 368.7Z" fill="#1F3876"/>
</svg>
